HIERARCHY
ROOT Hips
{
	OFFSET -0.179506 -22.333345 2.821913
	CHANNELS 6 Xposition Yposition Zposition Zrotation Yrotation Xrotation 
	JOINT LeftUpLeg
	{
		OFFSET 6.951974 -9.140623 -0.681533
		CHANNELS 3 Zrotation Yrotation Xrotation
		JOINT LeftLeg
		{
			OFFSET 3.427654 -37.519855 -0.449580
			CHANNELS 3 Zrotation Yrotation Xrotation
			JOINT LeftFoot
			{
				OFFSET -1.359570 -39.796059 -4.369333
				CHANNELS 3 Zrotation Yrotation Xrotation
				JOINT LeftToe
				{
					OFFSET 2.635814 -5.579078 11.928840
					CHANNELS 3 Zrotation Yrotation Xrotation
					End Site
					{
						OFFSET 0.000000 0.000000 0.000000
					}
				}
			}
		}
	}
	JOINT RightUpLeg
	{
		OFFSET -6.767048 -9.052170 -0.431982
		CHANNELS 3 Zrotation Yrotation Xrotation
		JOINT RightLeg
		{
			OFFSET -3.829005 -38.256897 -0.885003
			CHANNELS 3 Zrotation Yrotation Xrotation
			JOINT RightFoot
			{
				OFFSET 1.577377 -39.841461 -4.231180
				CHANNELS 3 Zrotation Yrotation Xrotation
				JOINT RightToe
				{
					OFFSET -2.537174 -4.814398 12.334795
					CHANNELS 3 Zrotation Yrotation Xrotation
					End Site
					{
						OFFSET 0.000000 0.000000 0.000000
					}
				}
			}
		}
	}
	JOINT Spine
	{
		OFFSET -0.253288 10.896323 -2.669631
		CHANNELS 3 Zrotation Yrotation Xrotation
		JOINT Spine1
		{
			OFFSET 0.548704 13.518043 0.109247
			CHANNELS 3 Zrotation Yrotation Xrotation
			JOINT Spine2
			{
				OFFSET 0.145701 5.292222 2.542457
				CHANNELS 3 Zrotation Yrotation Xrotation
				JOINT Neck
				{
					OFFSET -0.277840 21.387037 -4.285703
					CHANNELS 3 Zrotation Yrotation Xrotation
					JOINT Head
					{
						OFFSET 0.515184 6.496960 5.134897
						CHANNELS 3 Zrotation Yrotation Xrotation
						End Site
						{
							OFFSET 0.000000 0.000000 0.000000
						}
					}
				}
				JOINT LeftShoulder
				{
					OFFSET 7.884473 12.174932 -3.408961
					CHANNELS 3 Zrotation Yrotation Xrotation
					JOINT LeftArm
					{
						OFFSET 9.097692 3.046888 -0.886815
						CHANNELS 3 Zrotation Yrotation Xrotation
						JOINT LeftForeArm
						{
							OFFSET 25.961220 -1.277207 -2.745643
							CHANNELS 3 Zrotation Yrotation Xrotation
							JOINT LeftHand
							{
								OFFSET 24.923361 0.898606 -0.117091
								CHANNELS 3 Zrotation Yrotation Xrotation
								End Site
								{
									OFFSET 0.000000 0.000000 0.000000
								}
							}
						}
					}
				}
				JOINT RightShoulder
				{
					OFFSET -8.175920 11.883285 -3.861528
					CHANNELS 3 Zrotation Yrotation Xrotation
					JOINT RightArm
					{
						OFFSET -9.601238 3.255117 -0.914307
						CHANNELS 3 Zrotation Yrotation Xrotation
						JOINT RightForeArm
						{
							OFFSET -25.374195 -1.332924 -2.140099
							CHANNELS 3 Zrotation Yrotation Xrotation
							JOINT RightHand
							{
								OFFSET -25.529810 0.777228 -0.555919
								CHANNELS 3 Zrotation Yrotation Xrotation
								End Site
								{
									OFFSET 0.000000 0.000000 0.000000
								}
							}
						}
					}
				}
			}
		}
	}
}
MOTION
Frames: 15
Frame Time: 0.033333
-66.286064 6.261919 92.619125 132.452938 -1.324206 80.008326 16.029431 12.601213 -8.150517 -1.323599 12.434392 22.510226 -7.133728 2.078693 -6.867194 nan nan nan -13.141663 -4.494050 5.456135 0.022548 1.515747 22.227638 -1.317723 2.932427 -27.699739 nan nan nan 2.867878 2.168999 10.811186 0.318725 -2.601422 9.105189 -0.057746 0.603072 -7.199491 -2.396645 18.586848 13.282929 -4.866276 22.194017 19.590912 -16.415290 -16.199682 3.711265 -34.381330 -12.699627 -11.263599 64.971777 -45.736523 -52.418052 18.109303 -30.564935 -31.012451 9.087626 24.629438 0.442708 68.437090 28.724445 28.443357 -163.309456 79.834243 -144.585849 1.289770 27.558790 -40.813358 
-66.278664 6.268435 92.626770 132.448984 -1.304471 79.968509 16.068766 12.526091 -8.081728 -1.388050 12.371166 22.460492 -7.230782 2.233064 -6.892781 nan nan nan -13.126232 -4.511795 5.512986 0.024344 1.568369 22.185306 -1.277678 2.914530 -27.723870 nan nan nan 2.921435 2.139955 10.915549 0.272754 -2.581066 8.899932 -0.048861 0.616105 -7.020651 -2.410528 18.549608 13.176936 -4.804315 22.205225 19.735075 -16.394224 -16.225481 3.699939 -34.382768 -12.737991 -11.254427 64.951408 -45.690533 -52.343073 18.105949 -30.596950 -31.031424 9.109884 24.642412 0.399175 68.403758 28.699225 28.383437 -163.457272 79.825808 -144.744172 1.293589 27.581056 -40.829199 
-66.274429 6.269886 92.627365 132.440554 -1.304983 79.966268 16.075835 12.489999 -8.064612 -1.410326 12.364709 22.439272 -7.261058 2.292289 -6.891646 nan nan nan -13.122742 -4.512507 5.522004 0.029350 1.579197 22.183920 -1.243260 2.908793 -27.719848 nan nan nan 2.936869 2.118976 10.938348 0.249462 -2.586703 8.844479 -0.056157 0.628768 -6.966770 -2.416275 18.540876 13.148268 -4.785773 22.203659 19.760353 -16.379939 -16.229234 3.697431 -34.369630 -12.743821 -11.251121 64.936999 -45.689272 -52.332376 18.116693 -30.608044 -31.062782 9.135462 24.652157 0.396448 68.392907 28.694358 28.372902 -163.484983 79.826702 -144.773935 1.273027 27.582377 -40.806860 
-66.267700 6.268004 92.630844 132.426006 -1.339931 79.973566 16.046926 12.391383 -8.045344 -1.462662 12.359774 22.387472 -7.296604 2.446180 -6.873793 nan nan nan -13.162099 -4.511120 5.504115 0.060191 1.596688 22.210133 -1.125272 2.901075 -27.677783 nan nan nan 2.969606 2.031629 10.957994 0.153645 -2.644376 8.715939 -0.127477 0.723148 -6.848889 -2.429863 18.563002 13.099686 -4.711330 22.182039 19.804564 -16.329059 -16.226261 3.681676 -34.257449 -12.691796 -11.263599 64.843942 -45.710755 -52.295967 18.205699 -30.629724 -31.115092 9.260357 24.725006 0.448089 68.364805 28.690286 28.354823 -163.410392 79.846588 -144.706230 1.121106 27.561439 -40.737952 
-66.265953 6.271338 92.633072 132.427858 -1.369175 79.983597 16.018306 12.327593 -8.047338 -1.494538 12.380856 22.373844 -7.344681 2.568292 -6.870590 nan nan nan -13.201282 -4.527922 5.471821 0.050275 1.577390 22.221580 -1.089309 2.908788 -27.664662 nan nan nan 3.006228 1.926179 10.967228 0.056094 -2.724822 8.600853 -0.200847 0.838370 -6.748242 -2.448033 18.609654 13.057544 -4.634817 22.169890 19.822028 -16.270204 -16.220637 3.645118 -34.169843 -12.622827 -11.285578 64.773250 -45.740254 -52.311341 18.259713 -30.653545 -31.164063 9.371131 24.794123 0.498506 68.343826 28.689373 28.324131 -163.359977 79.869215 -144.636232 0.963453 27.485213 -40.620396 
-66.274017 6.280763 92.625000 132.426629 -1.347254 79.999476 16.046412 12.288264 -8.084491 -1.504242 12.423146 22.426681 -7.429321 2.698078 -6.953609 nan nan nan -13.176875 -4.539509 5.445840 -0.016020 1.459301 22.202001 -1.137685 2.957515 -27.699325 nan nan nan 3.068067 1.839264 11.041788 -0.013053 -2.771582 8.432273 -0.219514 0.933607 -6.689470 -2.446171 18.626741 13.031203 -4.554692 22.177123 19.850421 -16.246027 -16.233770 3.610127 -34.170979 -12.584294 -11.338162 64.774045 -45.772214 -52.310529 17.747560 -30.724673 -31.197436 9.427886 24.800461 0.510004 68.361056 28.635280 28.261030 -163.520861 79.880508 -144.674689 0.738253 27.322545 -40.549328 
-66.271454 6.291836 92.604225 132.410681 -1.291095 80.000405 16.127886 12.250964 -8.068212 -1.550852 12.416030 22.415800 -7.456343 2.755141 -6.987929 nan nan nan -13.129972 -4.523893 5.469485 0.005513 1.449690 22.224403 -1.143355 2.939293 -27.722282 nan nan nan 3.059534 1.966899 11.099599 0.061517 -2.628743 8.335155 -0.074851 0.747560 -6.623543 -2.458454 18.525148 12.905561 -4.634008 22.227565 19.979061 -16.225420 -16.243896 3.645757 -34.414282 -12.732083 -11.370450 64.968601 -45.747627 -52.248996 16.834918 -30.686875 -31.205618 9.202829 24.649715 0.381870 68.478580 28.619739 28.283636 -163.921449 79.809774 -144.960098 0.689032 27.286505 -40.746241 
-66.257324 6.300845 92.586136 132.393206 -1.269312 80.002113 16.175357 12.222375 -8.040320 -1.602620 12.401507 22.393781 -7.429917 2.783899 -6.999704 nan nan nan -13.107424 -4.508138 5.499672 0.017755 1.502256 22.207606 -1.121958 2.887472 -27.713155 nan nan nan 3.027956 2.048915 11.113512 0.117563 -2.533292 8.264296 0.010352 0.599649 -6.568238 -2.479206 18.475083 12.838771 -4.677083 22.294041 20.047710 -16.209769 -16.260840 3.715423 -34.534499 -12.766686 -11.386366 65.140133 -45.700234 -52.224777 16.636409 -30.580863 -31.267061 9.065890 24.605626 0.345224 68.535561 28.638019 28.286808 -164.038405 79.793187 -145.001757 0.736312 27.283913 -40.862601 
-66.244720 6.307394 92.584335 132.418266 -1.261491 79.980859 16.191722 12.194435 -8.024738 -1.614327 12.367031 22.411011 -7.405422 2.798058 -7.027716 nan nan nan -13.101523 -4.503788 5.557521 0.024750 1.545749 22.163314 -1.130190 2.900845 -27.680260 nan nan nan 2.997231 2.047032 11.077714 0.133227 -2.554971 8.332691 0.032070 0.590047 -6.575930 -2.483842 18.480712 12.853593 -4.646138 22.320031 20.014556 -16.176290 -16.296907 3.719766 -34.565545 -12.744389 -11.326971 65.198775 -45.654218 -52.321895 17.081449 -30.459692 -31.299670 9.059390 24.640478 0.350185 68.481305 28.634493 28.248520 -164.067299 79.833266 -145.074883 0.637047 27.165779 -40.794423 
-66.239365 6.319282 92.583961 132.433392 -1.255662 79.965786 16.189917 12.132471 -8.012586 -1.617898 12.313781 22.416520 -7.381201 2.836722 -7.016663 nan nan nan -13.118238 -4.496979 5.595618 0.069156 1.564524 22.157121 -1.132297 2.926777 -27.641644 nan nan nan 3.004684 2.038726 11.040339 0.132769 -2.569866 8.443858 0.017118 0.603378 -6.642979 -2.495415 18.526826 12.824104 -4.556275 22.288945 20.061091 -16.111714 -16.358425 3.715048 -34.604947 -12.696935 -11.264851 65.246743 -45.623917 -52.376638 17.250242 -30.458568 -31.426409 9.073015 24.683235 0.349675 68.419164 28.582845 28.159712 -164.173264 79.813181 -145.205152 0.691444 27.181326 -40.778085 
-66.231041 6.338838 92.591850 132.382725 -1.250903 79.924764 16.202988 12.166303 -7.935684 -1.627785 12.250471 22.400933 -7.414162 2.854910 -7.062886 nan nan nan -13.123930 -4.509672 5.630251 0.051563 1.563147 22.157744 -1.091552 2.951340 -27.616959 nan nan nan 3.024510 2.056257 11.064145 0.133577 -2.543040 8.454507 0.024642 0.612641 -6.641962 -2.534107 18.533806 12.816967 -4.523084 22.245879 20.053541 -16.123205 -16.396921 3.718523 -34.568596 -12.685539 -11.319427 65.218021 -45.655040 -52.345958 17.121842 -30.568397 -31.459092 9.078728 24.688030 0.339931 68.410281 28.540229 28.106507 -164.448584 79.795814 -145.535404 0.638590 27.197995 -40.974304 
-66.216736 6.354646 92.595192 132.376134 -1.232564 79.898552 16.235924 12.209100 -7.900982 -1.627359 12.240563 22.414843 -7.473827 2.850830 -7.072372 nan nan nan -13.113336 -4.526678 5.681468 0.062923 1.544778 22.143508 -1.092562 2.909490 -27.593117 nan nan nan 3.010256 2.073343 11.030845 0.167007 -2.528393 8.489935 0.060854 0.617175 -6.607318 -2.555829 18.492999 12.893025 -4.553349 22.276509 19.950796 -16.172480 -16.441169 3.751523 -34.477712 -12.685064 -11.394883 65.152836 -45.724861 -52.290837 16.988609 -30.671454 -31.612909 9.020143 24.682280 0.331411 68.445894 28.513263 28.104963 -164.301952 79.760269 -145.446396 0.415322 27.096593 -41.236789 
-66.203682 6.361850 92.595833 132.391243 -1.201089 79.898526 16.286067 12.222971 -7.900897 -1.629379 12.278988 22.440988 -7.503488 2.827010 -7.074306 nan nan nan -13.077733 -4.507909 5.715255 0.088978 1.523231 22.130142 -1.047763 2.868672 -27.575410 nan nan nan 2.978764 2.069810 10.950194 0.211752 -2.539416 8.574271 0.092738 0.641659 -6.631629 -2.559234 18.475730 13.007732 -4.567275 22.280853 19.810486 -16.153390 -16.485764 3.808005 -34.432748 -12.649521 -11.439820 65.068658 -45.781599 -52.233553 16.953747 -30.715628 -31.789645 8.968909 24.718007 0.366376 68.446009 28.471572 28.071643 -163.995964 79.751929 -145.170382 0.101441 27.004738 -41.327470 
-66.199120 6.361382 92.593651 132.366405 -1.210734 79.945181 16.274810 12.260928 -7.956826 -1.625036 12.284538 22.486426 -7.484842 2.841385 -6.997285 nan nan nan -13.087697 -4.499743 5.652678 0.088007 1.531689 22.142452 -1.062417 2.893117 -27.573963 nan nan nan 2.974886 2.046429 10.878293 0.194806 -2.548356 8.610351 0.066408 0.671826 -6.680691 -2.597142 18.458788 13.013696 -4.559200 22.288517 19.798173 -16.123529 -16.488177 3.814913 -34.357496 -12.562506 -11.466222 65.020041 -45.833431 -52.108638 16.849950 -30.648013 -31.867182 8.981549 24.762745 0.392768 68.479707 28.451359 28.035215 -164.071540 79.793188 -145.266072 0.305706 27.177923 -41.341404 
-66.190041 6.369124 92.600067 132.312707 -1.216171 79.930407 16.289007 12.300867 -7.919211 -1.644622 12.279984 22.489884 -7.455533 2.859899 -6.938066 nan nan nan -13.089015 -4.501445 5.677819 0.069784 1.615318 22.081345 -1.123331 2.864272 -27.578864 nan nan nan 3.013687 2.020205 10.919055 0.157936 -2.546867 8.621927 0.027491 0.705057 -6.738442 -2.650979 18.457087 12.959029 -4.491509 22.302636 19.837535 -16.131060 -16.465404 3.781305 -34.241102 -12.481833 -11.478231 64.939470 -45.924422 -51.953760 16.906595 -30.589822 -32.048489 9.007119 24.796074 0.388156 68.520187 28.425059 28.036727 -164.149728 79.803262 -145.299017 0.569253 27.294575 -41.262855 
